Coordinates
version=1
nRows=26
nColumns=24
inDegrees=yes

Units are S.I. units (second, meters, Newtons, ...)
Angles are in degrees.

endheader
time	pelvis_tilt	pelvis_list	pelvis_rotation	pelvis_tx	pelvis_ty	pelvis_tz	hip_flexion_r	hip_adduction_r	hip_rotation_r	knee_angle_r	ankle_angle_r	subtalar_angle_r	mtp_angle_r	hip_flexion_l	hip_adduction_l	hip_rotation_l	knee_angle_l	ankle_angle_l	subtalar_angle_l	mtp_angle_l	lumbar_extension	lumbar_bending	lumbar_rotation
      0.43000000	     -0.33589452	      0.56674748	     -2.54467755	     -0.79587226	      1.04232805	      0.25272759	     24.69030955	      2.31307422	     -0.26952402	     -4.54567704	     -0.87245970	     -7.40459310	      9.92429931	    -18.29367933	      2.73612835	     -0.98287818	     -6.65241741	     18.51318318	     10.06813285	      7.20854078	    -17.76015007	     -0.19064891	     -3.79071285
      0.43416667	     -0.36868113	      0.43839220	     -2.44639287	     -0.78940457	      1.04167774	      0.25288663	     24.75802763	      2.47729458	     -0.10200986	     -5.19800635	     -1.30788454	     -7.94840625	      9.89777848	    -18.28969819	      2.54061942	     -1.10201243	     -7.37710571	     18.57797719	     10.37575514	      7.29224085	    -17.66333803	      0.09661407	     -3.80227189
      0.43833333	     -0.36515549	      0.29364510	     -2.34452094	     -0.78294431	      1.04112882	      0.25303439	     24.79293473	      2.65100144	      0.03574748	     -5.88881230	     -1.72839089	     -8.44929274	      9.86627877	    -18.28721085	      2.31825477	     -1.32977565	     -8.18101499	     18.70288543	     10.88283256	      7.49489813	    -17.63235619	      0.39936940	     -3.77064198
      0.44250000	     -0.41652841	      0.15374797	     -2.24652073	     -0.77641106	      1.04056191	      0.25321120	     24.88709592	      2.82280239	      0.18755206	     -6.60421672	     -2.20006398	     -8.96672385	      9.84012654	    -18.22432823	      2.09921196	     -1.50832615	     -8.98888194	     18.70030314	     11.25202149	      7.66655479	    -17.50679811	      0.70492438	     -3.77092716
      0.44666667	     -0.40658877	     -0.00210884	     -2.13058186	     -0.76991824	      1.04015166	      0.25336991	     24.92131026	      2.99745302	      0.28529112	     -7.35052047	     -2.63794333	     -9.43164089	      9.80261053	    -18.17898259	      1.84658896	     -1.77426458	     -9.88909334	     18.74479050	     11.80951076	      7.98958349	    -17.48528650	      1.02128838	     -3.73406956
      0.45083333	     -0.44384119	     -0.15794615	     -2.03870096	     -0.76334809	      1.03971813	      0.25357160	     25.01241379	      3.18073842	      0.40549152	     -8.12840535	     -3.10189924	     -9.89120595	      9.76643893	    -18.08705540	      1.59970765	     -2.01981389	    -10.78523553	     18.69056556	     12.24553333	      8.25926664	    -17.37243299	      1.34755388	     -3.72400191
      0.45500000	     -0.42667736	     -0.31631123	     -1.91798653	     -0.75683816	      1.03944256	      0.25375091	     25.05628503	      3.34855955	      0.44755107	     -8.94104115	     -3.50276534	    -10.27917374	      9.70676586	    -18.00267616	      1.32823158	     -2.30841600	    -11.77198118	     18.62512424	     12.84108597	      8.74473319	    -17.35795348	      1.66126964	     -3.68584221
      0.45916667	     -0.47989508	     -0.47129069	     -1.82900379	     -0.75025170	      1.03910015	      0.25399353	     25.17976287	      3.52684550	      0.54347522	     -9.77704249	     -3.90206373	    -10.65873156	      9.65319046	    -17.83109939	      1.06509171	     -2.60085115	    -12.78783806	     18.49306891	     13.30565239	      9.12461091	    -17.22556360	      1.98537570	     -3.67518234
      0.46333333	     -0.44488094	     -0.63719855	     -1.72298713	     -0.74370991	      1.03896544	      0.25420084	     25.22008691	      3.69653969	      0.53139874	    -10.64860894	     -4.20000922	    -10.87444883	      9.16637932	    -17.73310843	      0.77947698	     -2.89818622	    -13.81812024	     18.22755969	     13.78093217	     12.82416921	    -17.23411438	      2.30783223	     -3.55910061
      0.46750000	     -0.47271356	     -0.79381712	     -1.61303463	     -0.73712676	      1.03879696	      0.25444873	     25.31923192	      3.85995144	      0.55595659	    -11.51304954	     -4.51305077	    -11.19233432	      9.14608137	    -17.52676576	      0.49019708	     -3.19413428	    -14.94275722	     17.99691131	     14.27660143	     12.91977281	    -17.13470438	      2.63912775	     -3.61122469
      0.47166667	     -0.45503280	     -0.95544867	     -1.50899851	     -0.73057944	      1.03874026	      0.25471118	     25.38176368	      4.02272811	      0.52594545	    -12.40927264	     -4.73418167	    -11.38958868	      9.11293436	    -17.33387980	      0.18506212	     -3.53871833	    -16.12719603	     17.72161854	     14.85544681	     13.09745400	    -17.10932712	      2.96162903	     -3.56579049
      0.47583333	     -0.43518564	     -1.11553099	     -1.40125337	     -0.72402244	      1.03874060	      0.25498833	     25.43654770	      4.17929576	      0.47807471	    -13.30347442	     -4.89974427	    -11.54248245	      9.07205104	    -17.11734137	     -0.12940974	     -3.87986763	    -17.35138834	     17.37450943	     15.40439138	     13.31856581	    -17.08102268	      3.27509046	     -3.52581476
      0.48000000	     -0.35302906	     -1.27435613	     -1.31209177	     -0.71752154	      1.03887674	      0.25534015	     25.42174816	      4.34468497	      0.46130009	    -14.19707379	     -4.98688812	    -11.73804011	      8.95631077	    -16.93817610	     -0.45505654	     -4.28293521	    -18.62147049	     16.93325704	     16.04151836	     13.96774917	    -17.15380153	      3.57191535	     -3.48871707
      0.48416667	     -0.36209916	     -1.41715374	     -1.22596716	     -0.71097419	      1.03890751	      0.25567629	     25.52092673	      4.48314335	      0.34898685	    -15.13075247	     -5.02771710	    -11.74568550	      8.89315684	    -16.62808124	     -0.76372220	     -4.61942724	    -19.95218308	     16.47684958	     16.50554061	     14.34183092	    -17.08540357	      3.87839895	     -3.45279952
      0.48833333	     -0.32161401	     -1.57245920	     -1.12125216	     -0.70444937	      1.03909692	      0.25603566	     25.51940922	      4.63382479	      0.28347766	    -15.96936959	     -5.05584642	    -11.85998133	      8.19058634	    -16.33631991	     -1.10799829	     -4.95381847	    -21.32031279	     15.80433428	     16.94312718	     18.45940145	    -17.08100661	      4.16346529	     -3.37341289
      0.49250000	     -0.26318813	     -1.72813153	     -1.02540125	     -0.69794377	      1.03933269	      0.25639104	     25.50403757	      4.77575717	      0.13620950	    -16.82553774	     -4.93657831	    -11.76060224	      8.18900636	    -16.03123640	     -1.45926150	     -5.30386967	    -22.75388726	     15.18546977	     17.40811196	     18.52847675	    -17.10238340	      4.46588554	     -3.35254247
      0.49666667	     -0.20082849	     -1.87759546	     -0.93837987	     -0.69147187	      1.03960927	      0.25681218	     25.46354927	      4.92091271	      0.01927231	    -17.63758384	     -4.81732545	    -11.73648391	      8.17829220	    -15.69516074	     -1.81924141	     -5.66683833	    -24.23747617	     14.49497926	     17.89015469	     18.65303660	    -17.13446745	      4.74857425	     -3.30822957
      0.50083333	     -0.14585059	     -2.02802670	     -0.85325999	     -0.68502601	      1.03990998	      0.25725254	     25.41223178	      5.06740270	     -0.10684166	    -18.41265816	     -4.65733716	    -11.69816489	      8.16166875	    -15.31318883	     -2.19189335	     -6.01801915	    -25.78141627	     13.74983327	     18.33266558	     18.82391175	    -17.15865889	      5.02825636	     -3.25452104
      0.50500000	     -0.06084238	     -2.17351136	     -0.77927620	     -0.67863789	      1.04027142	      0.25772183	     25.31556012	      5.21277790	     -0.24034890	    -19.15934583	     -4.44781696	    -11.64969532	      8.13319265	    -14.93700242	     -2.56708495	     -6.37087359	    -27.35545321	     12.94647921	     18.75776849	     19.08513266	    -17.23881143	      5.31359167	     -3.19548995
      0.50916667	      0.02306697	     -2.35488343	     -0.68511929	     -0.67223783	      1.04070173	      0.25819320	     25.15927178	      5.39605183	     -0.35600369	    -19.78137483	     -4.26152254	    -11.69177242	      7.67838023	    -14.52656327	     -3.00080266	     -6.70163867	    -28.97128062	     12.00737783	     19.06425820	     22.36570266	    -17.29771434	      5.62841837	     -3.13451142
      0.51333333	      0.08653604	     -2.47539986	     -0.61801350	     -0.66590796	      1.04109679	      0.25870584	     25.04115113	      5.51765359	     -0.50496069	    -20.43848615	     -3.93677623	    -11.52142286	      7.68651413	    -14.06749675	     -3.36159770	     -6.99254528	    -30.61228308	     11.04632717	     19.31475542	     22.39845807	    -17.33011786	      5.83726678	     -3.06508966
      0.51750000	      0.16555605	     -2.62325710	     -0.54196622	     -0.65961777	      1.04154849	      0.25921722	     24.86885132	      5.66957087	     -0.64834840	    -21.01636166	     -3.62544119	    -11.43753107	      7.68873209	    -13.59160111	     -3.76671996	     -7.27542493	    -32.29714632	     10.08637946	     19.54148767	     22.44984174	    -17.39686614	      6.09822718	     -2.99564962
      0.52166667	      0.24953407	     -2.77228319	     -0.46558454	     -0.65338174	      1.04202803	      0.25974211	     24.66619094	      5.82649568	     -0.78490184	    -21.54040481	     -3.29194630	    -11.36631246	      7.68823017	    -13.09224332	     -4.18078742	     -7.53731208	    -34.01304324	      9.08108738	     19.70145383	     22.50580915	    -17.47186719	      6.35373986	     -2.92301905
      0.52583333	      0.32469906	     -2.91941700	     -0.38820227	     -0.64719493	      1.04251872	      0.26027259	     24.45104393	      5.98422268	     -0.91703628	    -22.01862131	     -2.93163795	    -11.30118373	      7.68382291	    -12.55434055	     -4.59883736	     -7.77374436	    -35.75234607	      8.08181915	     19.81009708	     22.56363386	    -17.54338187	      6.60975020	     -2.84835649
      0.53000000	      0.40603317	     -3.07071249	     -0.30736251	     -0.64105574	      1.04303949	      0.26080306	     24.20228798	      6.14954052	     -1.04070568	    -22.43904792	     -2.55922210	    -11.24660831	      7.67811878	    -12.00102723	     -5.02431725	     -7.97817410	    -37.50466876	      7.06844524	     19.82067286	     22.59776510	    -17.62029831	      6.85779455	     -2.77060065
      0.53416667	      0.48594140	     -3.21533373	     -0.21899039	     -0.63497519	      1.04359930	      0.26132367	     23.92919947	      6.31212286	     -1.13830910	    -22.80409240	     -2.16705952	    -11.23303755	      7.67557965	    -11.42320315	     -5.43852939	     -8.12261520	    -39.25575804	      6.02945501	     19.73583459	     22.60072009	    -17.70806658	      7.10475671	     -2.69113323
